<svg id="Ñëîé_1" data-name="Ñëîé 1" xmlns="http://www.w3.org/2000/svg" xmlns:xlink="http://www.w3.org/1999/xlink" viewBox="0 0 438.5 324.79"><defs><style>.cls-1{fill:url(#linear-gradient);}.cls-2{fill:url(#linear-gradient-2);}.cls-3{fill:url(#linear-gradient-3);}.cls-4{fill:#020230;opacity:0.6;}.cls-14,.cls-15,.cls-29,.cls-4{isolation:isolate;}.cls-5{fill:url(#linear-gradient-4);}.cls-6{fill:url(#radial-gradient);}.cls-7{fill:url(#radial-gradient-2);}.cls-8{fill:url(#radial-gradient-3);}.cls-29,.cls-9{fill:#fff;}.cls-10,.cls-14{opacity:0.4;}.cls-11,.cls-14,.cls-15{fill:#06033e;}.cls-12{fill:url(#radial-gradient-4);}.cls-13{fill:url(#linear-gradient-5);}.cls-15,.cls-17,.cls-29{opacity:0.5;}.cls-16{fill:url(#radial-gradient-5);}.cls-18{fill:#e8975b;}.cls-19{fill:#f8359e;}.cls-20{fill:url(#linear-gradient-6);}.cls-21{fill:url(#radial-gradient-6);}.cls-22{fill:url(#linear-gradient-7);}.cls-23{fill:url(#linear-gradient-8);}.cls-24{fill:url(#linear-gradient-9);}.cls-25{fill:url(#linear-gradient-10);}.cls-26{fill:url(#radial-gradient-7);}.cls-27{fill:#0c0a78;}.cls-28{fill:url(#linear-gradient-11);}</style><linearGradient id="linear-gradient" x1="481.05" y1="145.08" x2="513.67" y2="145.08" gradientTransform="matrix(1, 0, 0, -1, 0, 452)" gradientUnits="userSpaceOnUse"><stop offset="0" stop-color="#e39a65"/><stop offset="1" stop-color="#e95f8d"/></linearGradient><linearGradient id="linear-gradient-2" x1="436.4" y1="189.78" x2="491.19" y2="189.78" xlink:href="#linear-gradient"/><linearGradient id="linear-gradient-3" x1="75.17" y1="171.42" x2="129.96" y2="171.42" xlink:href="#linear-gradient"/><linearGradient id="linear-gradient-4" x1="138.96" y1="174.94" x2="431.32" y2="174.94" xlink:href="#linear-gradient"/><radialGradient id="radial-gradient" cx="300.45" cy="391.39" r="223.3" gradientTransform="matrix(1, 0, 0, -1, 0, 452)" gradientUnits="userSpaceOnUse"><stop offset="0" stop-color="#e39a65"/><stop offset="0.47" stop-color="#a92ffb"/><stop offset="0.59" stop-color="#891cfb"/><stop offset="0.74" stop-color="#6507fa"/><stop offset="0.8" stop-color="#0d0c6f"/></radialGradient><radialGradient id="radial-gradient-2" cx="163.87" cy="212.07" r="244.17" gradientTransform="matrix(1, 0, 0, -1, 0, 452)" gradientUnits="userSpaceOnUse"><stop offset="0" stop-color="#e39a65"/><stop offset="0.47" stop-color="#a92ffb"/><stop offset="0.57" stop-color="#891cfb"/><stop offset="0.68" stop-color="#6507fa"/><stop offset="0.74" stop-color="#0d0c6f"/></radialGradient><radialGradient id="radial-gradient-3" cx="186.33" cy="261.08" r="218.96" gradientTransform="matrix(1, 0, 0, -1, 0, 452)" gradientUnits="userSpaceOnUse"><stop offset="0" stop-color="#e39a65"/><stop offset="0.47" stop-color="#a92ffb"/><stop offset="0.59" stop-color="#891cfb"/><stop offset="0.73" stop-color="#6507fa"/><stop offset="1" stop-color="#3919bb"/></radialGradient><radialGradient id="radial-gradient-4" cx="240.88" cy="344.82" r="223.34" xlink:href="#radial-gradient-3"/><linearGradient id="linear-gradient-5" x1="265.43" y1="286.19" x2="444.39" y2="286.19" gradientTransform="matrix(1, 0, 0, -1, 0, 452)" gradientUnits="userSpaceOnUse"><stop offset="0" stop-color="#3919bb"/><stop offset="1" stop-color="#6507fa"/></linearGradient><radialGradient id="radial-gradient-5" cx="159.35" cy="392.51" r="347.85" xlink:href="#radial-gradient-3"/><linearGradient id="linear-gradient-6" x1="143.42" y1="261.71" x2="220.19" y2="261.71" xlink:href="#linear-gradient"/><radialGradient id="radial-gradient-6" cx="150.22" cy="324.33" r="165.35" gradientTransform="matrix(1, 0, 0, -1, 0, 452)" gradientUnits="userSpaceOnUse"><stop offset="0" stop-color="#e39a65"/><stop offset="0.15" stop-color="#a92ffb"/><stop offset="0.41" stop-color="#3919bb"/><stop offset="0.93" stop-color="#3919bb"/></radialGradient><linearGradient id="linear-gradient-7" x1="153.14" y1="344.81" x2="212.45" y2="344.81" gradientTransform="matrix(1, 0, 0, -1, 0, 452)" gradientUnits="userSpaceOnUse"><stop offset="0" stop-color="#e39a65"/><stop offset="0.25" stop-color="#a92ffb"/><stop offset="0.56" stop-color="#3919bb"/></linearGradient><linearGradient id="linear-gradient-8" x1="158.71" y1="347.83" x2="206.89" y2="347.83" gradientTransform="matrix(1, 0, 0, -1, -75.17, 414.45)" gradientUnits="userSpaceOnUse"><stop offset="0" stop-color="#4f1fec"/><stop offset="1" stop-color="#a92ffb"/></linearGradient><linearGradient id="linear-gradient-9" x1="157.56" y1="347.83" x2="205.74" y2="347.83" xlink:href="#linear-gradient-8"/><linearGradient id="linear-gradient-10" x1="158.71" y1="354.18" x2="219.46" y2="354.18" gradientTransform="matrix(1, 0, 0, -1, 0, 452)" gradientUnits="userSpaceOnUse"><stop offset="0" stop-color="#131060"/><stop offset="0.19" stop-color="#141062"/><stop offset="0.28" stop-color="#19106a"/><stop offset="0.36" stop-color="#221078"/><stop offset="0.42" stop-color="#2e0f8b"/><stop offset="0.48" stop-color="#3e0fa3"/><stop offset="0.54" stop-color="#510ec2"/><stop offset="0.58" stop-color="#680de5"/><stop offset="0.61" stop-color="#740df8"/><stop offset="0.62" stop-color="#7a14f0"/><stop offset="0.68" stop-color="#9b3cc3"/><stop offset="0.75" stop-color="#b75d9d"/><stop offset="0.81" stop-color="#cc7680"/><stop offset="0.88" stop-color="#dc886c"/><stop offset="0.94" stop-color="#e5935f"/><stop offset="1" stop-color="#e8975b"/></linearGradient><radialGradient id="radial-gradient-7" cx="145.74" cy="361.6" r="108.16" gradientTransform="matrix(1, 0, 0, -1, 0, 452)" gradientUnits="userSpaceOnUse"><stop offset="0" stop-color="#e39a65"/><stop offset="0.25" stop-color="#a92ffb"/><stop offset="0.74" stop-color="#3919bb"/></radialGradient><linearGradient id="linear-gradient-11" x1="178.98" y1="334.58" x2="187.39" y2="334.58" xlink:href="#linear-gradient-10"/></defs><path class="cls-1" d="M497.36,316.51a7,7,0,0,1-3.48-.93l-11.74-6.78a2.17,2.17,0,0,1,0-3.76l11.74-6.78a7,7,0,0,1,7,0L512.58,305a2.17,2.17,0,0,1,0,3.76l-11.74,6.78A7,7,0,0,1,497.36,316.51Zm0-17.32a5.15,5.15,0,0,0-2.55.68l-11.74,6.78a.31.31,0,0,0,0,.54L494.81,314h0a5.1,5.1,0,0,0,5.1,0l11.74-6.78a.31.31,0,0,0,0-.54l-11.74-6.78A5,5,0,0,0,497.36,299.19Z" transform="translate(-75.17 -37.55)"/><path class="cls-2" d="M463.8,278.05a11.3,11.3,0,0,1-5.66-1.51l-20.2-11.66a3.07,3.07,0,0,1,0-5.32l20.2-11.66a11.34,11.34,0,0,1,11.31,0l20.2,11.66a3.07,3.07,0,0,1,0,5.32l-20.2,11.66A11.33,11.33,0,0,1,463.8,278.05Zm-4.73-3.12a9.49,9.49,0,0,0,9.45,0l20.2-11.66a1.22,1.22,0,0,0,0-2.1l-20.2-11.66a9.49,9.49,0,0,0-9.45,0l-20.2,11.66a1.18,1.18,0,0,0-.6,1.05,1.2,1.2,0,0,0,.6,1Z" transform="translate(-75.17 -37.55)"/><path class="cls-3" d="M102.57,296.41a11.3,11.3,0,0,1-5.66-1.51l-20.2-11.66a3.07,3.07,0,0,1,0-5.32l20.2-11.66a11.31,11.31,0,0,1,11.31,0l20.2,11.66a3.07,3.07,0,0,1,0,5.32l-20.2,11.66A11.31,11.31,0,0,1,102.57,296.41Zm0-29.8a9.5,9.5,0,0,0-4.73,1.26l-20.2,11.66a1.22,1.22,0,0,0,0,2.1l20.2,11.66h0a9.49,9.49,0,0,0,9.45,0l20.2-11.66a1.18,1.18,0,0,0,.6-1.05,1.2,1.2,0,0,0-.6-1.05l-20.2-11.66A9.41,9.41,0,0,0,102.57,266.61Z" transform="translate(-75.17 -37.55)"/><path class="cls-4" d="M307.12,347.28,162.69,263.89c-2.11-1.22-1.84-3.34.59-4.74L256,205.63c2.43-1.4,6.11-1.56,8.21-.34l144.43,83.39c2.11,1.22,1.84,3.34-.59,4.74l-92.7,53.52C312.9,348.34,309.23,348.5,307.12,347.28Z" transform="translate(-75.17 -37.55)"/><path class="cls-5" d="M310.43,362.34a9.13,9.13,0,0,1-4.54-1.07h0L141.05,266.1a3.69,3.69,0,0,1-2.09-3.16c0-1.45,1-2.86,2.76-3.87l112.36-65.83c3.08-1.78,7.61-2,10.31-.39L429.23,288a3.69,3.69,0,0,1,2.09,3.16c0,1.45-1,2.85-2.76,3.87L316.2,360.88A11.89,11.89,0,0,1,310.43,362.34ZM259.87,193.66a10,10,0,0,0-4.85,1.2L142.66,260.69c-1.15.67-1.83,1.51-1.83,2.26a2,2,0,0,0,1.16,1.54l164.84,95.17h0c2.1,1.22,6,1,8.44-.39l112.36-65.83c1.15-.67,1.83-1.51,1.83-2.26a2,2,0,0,0-1.16-1.54L263.46,194.47A7.27,7.27,0,0,0,259.87,193.66Z" transform="translate(-75.17 -37.55)"/><path class="cls-6" d="M447,148.88,303.13,65.82a3.72,3.72,0,0,0-2.94-.42h0l-2.66.93.94.22a4.65,4.65,0,0,0-.88,1.65L265.05,173.83a6.36,6.36,0,0,0,2.64,7.11L411.54,264a4.14,4.14,0,0,0,1.06.43l-.36.78,2.54-.89h0a4.06,4.06,0,0,0,2.31-2.69L449.61,156A6.36,6.36,0,0,0,447,148.88Z" transform="translate(-75.17 -37.55)"/><path class="cls-7" d="M406.39,267.94l.05.06-142.1-82c-2.09-1.21-5.74-1.06-8.16.34l-91.81,53-3.06-1.17.86,4.29h0a2.56,2.56,0,0,0,1.38,1.72L307,327c2.09,1.21,5.74,1.06,8.16-.34l92-53.14a3.67,3.67,0,0,0,1.95-2.27h0L410,267Z" transform="translate(-75.17 -37.55)"/><path class="cls-8" d="M307.12,323.17,162.69,239.78c-2.11-1.22-1.84-3.34.59-4.74L256,181.52c2.43-1.4,6.11-1.56,8.21-.34l144.43,83.39c2.11,1.22,1.84,3.34-.59,4.74l-92.7,53.52C312.9,324.23,309.23,324.39,307.12,323.17Z" transform="translate(-75.17 -37.55)"/><path class="cls-9" d="M408,268.19l-92.7,53.52c-2.43,1.4-6.11,1.56-8.21.34L162.69,238.66a2.65,2.65,0,0,1-1.31-1.5,2.25,2.25,0,0,0,1.31,2.62l144.43,83.39c2.11,1.22,5.78,1.06,8.21-.34L408,269.31c1.6-.93,2.24-2.16,1.9-3.24A3.83,3.83,0,0,1,408,268.19Z" transform="translate(-75.17 -37.55)"/><g class="cls-10"><path class="cls-11" d="M231.58,226.25l-4.88-2.82c-.39-.23-.34-.62.11-.88l5.76-3.32a1.69,1.69,0,0,1,1.53-.06L239,222c.39.23.34.62-.11.88l-5.76,3.32A1.69,1.69,0,0,1,231.58,226.25Z" transform="translate(-75.17 -37.55)"/><path class="cls-11" d="M239.11,230.6l-4.88-2.82c-.39-.23-.34-.62.11-.88l5.76-3.32a1.69,1.69,0,0,1,1.53-.06l4.88,2.82c.39.23.34.62-.11.88l-5.76,3.32A1.72,1.72,0,0,1,239.11,230.6Z" transform="translate(-75.17 -37.55)"/><path class="cls-11" d="M246.64,235l-4.88-2.82c-.39-.23-.34-.62.11-.88l5.76-3.32a1.69,1.69,0,0,1,1.53-.06l4.88,2.82c.39.23.34.62-.11.88l-5.76,3.32A1.76,1.76,0,0,1,246.64,235Z" transform="translate(-75.17 -37.55)"/><path class="cls-11" d="M257.06,231.36l-4.88-2.82c-.39-.23-.34-.62.11-.88l4.83-2.79a1.69,1.69,0,0,1,1.53-.06l4.88,2.82c.39.23.34.62-.11.88l-4.83,2.79A1.76,1.76,0,0,1,257.06,231.36Z" transform="translate(-75.17 -37.55)"/><path class="cls-11" d="M264.59,235.7l-4.88-2.82c-.39-.23-.34-.62.11-.88l4.83-2.79a1.69,1.69,0,0,1,1.53-.06l4.88,2.82c.39.23.34.62-.11.88l-4.83,2.79A1.69,1.69,0,0,1,264.59,235.7Z" transform="translate(-75.17 -37.55)"/><path class="cls-11" d="M272.12,240.05l-4.88-2.82c-.39-.23-.34-.62.11-.88l4.83-2.79a1.69,1.69,0,0,1,1.53-.06l4.88,2.82c.39.23.34.62-.11.88L273.65,240A1.69,1.69,0,0,1,272.12,240.05Z" transform="translate(-75.17 -37.55)"/><path class="cls-11" d="M279.65,244.4l-4.88-2.82c-.39-.23-.34-.62.11-.88l4.83-2.79a1.69,1.69,0,0,1,1.53-.06l4.88,2.82c.39.23.34.62-.11.88l-4.83,2.79A1.73,1.73,0,0,1,279.65,244.4Z" transform="translate(-75.17 -37.55)"/><path class="cls-11" d="M287.18,248.75l-4.88-2.82c-.39-.23-.34-.62.11-.88l4.83-2.79a1.69,1.69,0,0,1,1.53-.06l4.88,2.82c.39.23.34.62-.11.88l-4.83,2.79A1.76,1.76,0,0,1,287.18,248.75Z" transform="translate(-75.17 -37.55)"/><path class="cls-11" d="M294.71,253.09l-4.88-2.82c-.39-.23-.34-.62.11-.88l4.83-2.79a1.69,1.69,0,0,1,1.53-.06l4.88,2.82c.39.23.34.62-.11.88L296.24,253A1.69,1.69,0,0,1,294.71,253.09Z" transform="translate(-75.17 -37.55)"/><path class="cls-11" d="M302.24,257.44l-4.88-2.82c-.39-.23-.34-.62.11-.88L302.3,251a1.69,1.69,0,0,1,1.53-.06l4.88,2.82c.39.23.34.62-.11.88l-4.83,2.79A1.69,1.69,0,0,1,302.24,257.44Z" transform="translate(-75.17 -37.55)"/><path class="cls-11" d="M309.77,261.79,304.89,259c-.39-.23-.34-.62.11-.88l4.83-2.79a1.69,1.69,0,0,1,1.53-.06l4.88,2.82c.39.23.34.62-.11.88l-4.83,2.79A1.69,1.69,0,0,1,309.77,261.79Z" transform="translate(-75.17 -37.55)"/><path class="cls-11" d="M317.3,266.14l-4.88-2.82c-.39-.23-.34-.62.11-.88l4.83-2.79a1.69,1.69,0,0,1,1.53-.06l4.88,2.82c.39.23.34.62-.11.88l-4.83,2.79A1.76,1.76,0,0,1,317.3,266.14Z" transform="translate(-75.17 -37.55)"/><path class="cls-11" d="M324.83,270.48,320,267.66c-.39-.23-.34-.62.11-.88l4.83-2.79a1.69,1.69,0,0,1,1.53-.06l4.88,2.82c.39.23.34.62-.11.88l-4.83,2.79A1.69,1.69,0,0,1,324.83,270.48Z" transform="translate(-75.17 -37.55)"/><path class="cls-11" d="M268.15,229.3l-4.88-2.82c-.39-.23-.34-.62.11-.88l4.83-2.79a1.69,1.69,0,0,1,1.53-.06l4.88,2.82c.39.23.34.62-.11.88l-4.83,2.79A1.72,1.72,0,0,1,268.15,229.3Z" transform="translate(-75.17 -37.55)"/><path class="cls-11" d="M260.51,224.89l-4.88-2.82c-.39-.23-.34-.62.11-.88l4.83-2.79a1.69,1.69,0,0,1,1.53-.06l4.88,2.82c.39.23.34.62-.11.88L262,224.83A1.76,1.76,0,0,1,260.51,224.89Z" transform="translate(-75.17 -37.55)"/><path class="cls-11" d="M252.85,220.47l-10.5-6.06c-.39-.23-.34-.62.11-.88l4.83-2.79a1.69,1.69,0,0,1,1.53-.06l10.5,6.06c.39.23.34.62-.11.88l-4.83,2.79A1.76,1.76,0,0,1,252.85,220.47Z" transform="translate(-75.17 -37.55)"/><path class="cls-11" d="M258.2,215.09l-8.52-4.92c-.39-.23-.34-.62.11-.88l4.83-2.79a1.69,1.69,0,0,1,1.53-.06l8.52,4.92c.39.23.34.62-.11.88L259.73,215A1.69,1.69,0,0,1,258.2,215.09Z" transform="translate(-75.17 -37.55)"/><path class="cls-11" d="M275.68,233.65l-4.88-2.82c-.39-.23-.34-.62.11-.88l4.83-2.79a1.69,1.69,0,0,1,1.53-.06l4.88,2.82c.39.23.34.62-.11.88l-4.83,2.79A1.76,1.76,0,0,1,275.68,233.65Z" transform="translate(-75.17 -37.55)"/><path class="cls-11" d="M283.21,238l-4.88-2.82c-.39-.23-.34-.62.11-.88l4.83-2.79a1.69,1.69,0,0,1,1.53-.06l4.88,2.82c.39.23.34.62-.11.88l-4.83,2.79A1.69,1.69,0,0,1,283.21,238Z" transform="translate(-75.17 -37.55)"/><path class="cls-11" d="M290.74,242.34l-4.88-2.82c-.39-.23-.34-.62.11-.88l4.83-2.79a1.69,1.69,0,0,1,1.53-.06l4.88,2.82c.39.23.34.62-.11.88l-4.83,2.79A1.69,1.69,0,0,1,290.74,242.34Z" transform="translate(-75.17 -37.55)"/><path class="cls-11" d="M298.27,246.69l-4.88-2.82c-.39-.23-.34-.62.11-.88l4.83-2.79a1.69,1.69,0,0,1,1.53-.06l4.88,2.82c.39.23.34.62-.11.88l-4.83,2.79A1.72,1.72,0,0,1,298.27,246.69Z" transform="translate(-75.17 -37.55)"/><path class="cls-11" d="M305.8,251l-4.88-2.82c-.39-.23-.34-.62.11-.88l4.83-2.79a1.69,1.69,0,0,1,1.53-.06l4.88,2.82c.39.23.34.62-.11.88L307.33,251A1.76,1.76,0,0,1,305.8,251Z" transform="translate(-75.17 -37.55)"/><path class="cls-11" d="M313.33,255.38l-4.88-2.82c-.39-.23-.34-.62.11-.88l4.83-2.79a1.69,1.69,0,0,1,1.53-.06l4.88,2.82c.39.23.34.62-.11.88l-4.83,2.79A1.69,1.69,0,0,1,313.33,255.38Z" transform="translate(-75.17 -37.55)"/><path class="cls-11" d="M320.86,259.73,316,256.91c-.39-.23-.34-.62.11-.88l4.83-2.79a1.69,1.69,0,0,1,1.53-.06l4.88,2.82c.39.23.34.62-.11.88l-4.83,2.79A1.69,1.69,0,0,1,320.86,259.73Z" transform="translate(-75.17 -37.55)"/><path class="cls-11" d="M328.39,264.08l-4.88-2.82c-.39-.23-.34-.62.11-.88l4.83-2.79a1.69,1.69,0,0,1,1.53-.06l4.88,2.82c.39.23.34.62-.11.88L329.92,264A1.72,1.72,0,0,1,328.39,264.08Z" transform="translate(-75.17 -37.55)"/><path class="cls-11" d="M335.92,268.43,331,265.61c-.39-.23-.34-.62.11-.88l4.83-2.79a1.69,1.69,0,0,1,1.53-.06l4.88,2.82c.39.23.34.62-.11.88l-4.83,2.79A1.76,1.76,0,0,1,335.92,268.43Z" transform="translate(-75.17 -37.55)"/><path class="cls-11" d="M349.31,276.16,338.67,270c-.39-.23-.34-.62.11-.88l4.83-2.79a1.69,1.69,0,0,1,1.53-.06l10.64,6.14c.39.23.34.62-.11.88l-4.83,2.79A1.76,1.76,0,0,1,349.31,276.16Z" transform="translate(-75.17 -37.55)"/><path class="cls-11" d="M364,267.69l-9-5.18c-.39-.23-.34-.62.11-.88l4.83-2.79a1.69,1.69,0,0,1,1.53-.06l9,5.18c.39.23.34.62-.11.88l-4.83,2.79A1.69,1.69,0,0,1,364,267.69Z" transform="translate(-75.17 -37.55)"/><path class="cls-11" d="M288.87,232.79,284,230c-.39-.23-.34-.62.11-.88l4.83-2.79a1.69,1.69,0,0,1,1.53-.06l4.88,2.82c.39.23.34.62-.11.88l-4.83,2.79A1.69,1.69,0,0,1,288.87,232.79Z" transform="translate(-75.17 -37.55)"/><path class="cls-11" d="M281.15,228.34l-4.88-2.82c-.39-.23-.34-.62.11-.88l4.83-2.79a1.69,1.69,0,0,1,1.53-.06l4.88,2.82c.39.23.34.62-.11.88l-4.83,2.79A1.72,1.72,0,0,1,281.15,228.34Z" transform="translate(-75.17 -37.55)"/><path class="cls-11" d="M273.43,223.88l-4.88-2.82c-.39-.23-.34-.62.11-.88l4.83-2.79a1.69,1.69,0,0,1,1.53-.06l4.88,2.82c.39.23.34.62-.11.88L275,223.82A1.69,1.69,0,0,1,273.43,223.88Z" transform="translate(-75.17 -37.55)"/><path class="cls-11" d="M265.72,219.43l-4.88-2.82c-.39-.23-.34-.62.11-.88l4.83-2.79a1.69,1.69,0,0,1,1.53-.06l4.88,2.82c.39.23.34.62-.11.88l-4.83,2.79A1.76,1.76,0,0,1,265.72,219.43Z" transform="translate(-75.17 -37.55)"/><path class="cls-11" d="M296.4,237.14l-4.88-2.82c-.39-.23-.34-.62.11-.88l4.83-2.79a1.69,1.69,0,0,1,1.53-.06l4.88,2.82c.39.23.34.62-.11.88l-4.83,2.79A1.69,1.69,0,0,1,296.4,237.14Z" transform="translate(-75.17 -37.55)"/><path class="cls-11" d="M303.93,241.49l-4.88-2.82c-.39-.23-.34-.62.11-.88L304,235a1.69,1.69,0,0,1,1.53-.06l4.88,2.82c.39.23.34.62-.11.88l-4.83,2.79A1.69,1.69,0,0,1,303.93,241.49Z" transform="translate(-75.17 -37.55)"/><path class="cls-11" d="M311.46,245.84,306.58,243c-.39-.23-.34-.62.11-.88l4.83-2.79a1.69,1.69,0,0,1,1.53-.06l4.88,2.82c.39.23.34.62-.11.88L313,245.78A1.72,1.72,0,0,1,311.46,245.84Z" transform="translate(-75.17 -37.55)"/><path class="cls-11" d="M319,250.18l-4.88-2.82c-.39-.23-.34-.62.11-.88l4.83-2.79a1.69,1.69,0,0,1,1.53-.06l4.88,2.82c.39.23.34.62-.11.88l-4.83,2.79A1.69,1.69,0,0,1,319,250.18Z" transform="translate(-75.17 -37.55)"/><path class="cls-11" d="M326.52,254.53l-4.88-2.82c-.39-.23-.34-.62.11-.88l4.83-2.79a1.69,1.69,0,0,1,1.53-.06L333,250.8c.39.23.34.62-.11.88l-4.83,2.79A1.69,1.69,0,0,1,326.52,254.53Z" transform="translate(-75.17 -37.55)"/><path class="cls-11" d="M334.05,258.88l-4.88-2.82c-.39-.23-.34-.62.11-.88l4.83-2.79a1.69,1.69,0,0,1,1.53-.06l4.88,2.82c.39.23.34.62-.11.88l-4.83,2.79A1.69,1.69,0,0,1,334.05,258.88Z" transform="translate(-75.17 -37.55)"/><path class="cls-11" d="M341.58,263.23l-4.88-2.82c-.39-.23-.34-.62.11-.88l4.83-2.79a1.69,1.69,0,0,1,1.53-.06l4.88,2.82c.39.23.34.62-.11.88l-4.83,2.79A1.72,1.72,0,0,1,341.58,263.23Z" transform="translate(-75.17 -37.55)"/><path class="cls-11" d="M349.11,267.58l-4.88-2.82c-.39-.23-.34-.62.11-.88l4.83-2.79a1.69,1.69,0,0,1,1.53-.06l4.88,2.82c.39.23.34.62-.11.88l-4.83,2.79A1.76,1.76,0,0,1,349.11,267.58Z" transform="translate(-75.17 -37.55)"/><path class="cls-11" d="M356.64,271.92l-4.88-2.82c-.39-.23-.34-.62.11-.88l4.83-2.79a1.69,1.69,0,0,1,1.53-.06l4.88,2.82c.39.23.34.62-.11.88l-4.83,2.79A1.69,1.69,0,0,1,356.64,271.92Z" transform="translate(-75.17 -37.55)"/><path class="cls-11" d="M284.9,222,280,219.22c-.39-.23-.34-.62.11-.88l4.83-2.79a1.69,1.69,0,0,1,1.53-.06l4.88,2.82c.39.23.34.62-.11.88L286.43,222A1.69,1.69,0,0,1,284.9,222Z" transform="translate(-75.17 -37.55)"/><path class="cls-11" d="M277.41,217.72l-4.88-2.82c-.39-.23-.34-.62.11-.88l4.83-2.79a1.69,1.69,0,0,1,1.53-.06l4.88,2.82c.39.23.34.62-.11.88l-4.83,2.79A1.76,1.76,0,0,1,277.41,217.72Z" transform="translate(-75.17 -37.55)"/><path class="cls-11" d="M269.92,213.39,265,210.57c-.39-.23-.34-.62.11-.88L270,206.9a1.69,1.69,0,0,1,1.53-.06l4.88,2.82c.39.23.34.62-.11.88l-4.83,2.79A1.69,1.69,0,0,1,269.92,213.39Z" transform="translate(-75.17 -37.55)"/><path class="cls-11" d="M262.43,209.06l-4.88-2.82c-.39-.23-.34-.62.11-.88l4.83-2.79a1.69,1.69,0,0,1,1.53-.06l4.88,2.82c.39.23.34.62-.11.88L264,209A1.69,1.69,0,0,1,262.43,209.06Z" transform="translate(-75.17 -37.55)"/><path class="cls-11" d="M270.13,204.61l-4.88-2.82c-.39-.23-.34-.62.11-.88L267,200a1.69,1.69,0,0,1,1.53-.06l4.88,2.82c.39.23.34.62-.11.88l-1.6.92A1.69,1.69,0,0,1,270.13,204.61Z" transform="translate(-75.17 -37.55)"/><path class="cls-11" d="M279.91,210.26,275,207.44c-.39-.23-.34-.62.11-.88l1.6-.92a1.69,1.69,0,0,1,1.53-.06l4.88,2.82c.39.23.34.62-.11.88l-1.6.92A1.69,1.69,0,0,1,279.91,210.26Z" transform="translate(-75.17 -37.55)"/><path class="cls-11" d="M287.37,214.57l-4.88-2.82c-.39-.23-.34-.62.11-.88l1.6-.92a1.69,1.69,0,0,1,1.53-.06l4.88,2.82c.39.23.34.62-.11.88l-1.6.92A1.72,1.72,0,0,1,287.37,214.57Z" transform="translate(-75.17 -37.55)"/><path class="cls-11" d="M294.83,218.88,290,216.06c-.39-.23-.34-.62.11-.88l1.6-.92a1.69,1.69,0,0,1,1.53-.06l4.88,2.82c.39.23.34.62-.11.88l-1.6.92A1.76,1.76,0,0,1,294.83,218.88Z" transform="translate(-75.17 -37.55)"/><path class="cls-11" d="M302.29,223.18l-4.88-2.82c-.39-.23-.34-.62.11-.88l1.6-.92a1.69,1.69,0,0,1,1.53-.06l4.88,2.82c.39.23.34.62-.11.88l-1.6.92A1.69,1.69,0,0,1,302.29,223.18Z" transform="translate(-75.17 -37.55)"/><path class="cls-11" d="M344,247.23l-4.88-2.82c-.39-.23-.34-.62.11-.88l1.6-.92a1.69,1.69,0,0,1,1.53-.06l4.88,2.82c.39.23.34.62-.11.88l-1.6.92A1.69,1.69,0,0,1,344,247.23Z" transform="translate(-75.17 -37.55)"/><path class="cls-11" d="M351.41,251.54l-4.88-2.82c-.39-.23-.34-.62.11-.88l1.6-.92a1.69,1.69,0,0,1,1.53-.06l4.88,2.82c.39.23.34.62-.11.88l-1.6.92A1.69,1.69,0,0,1,351.41,251.54Z" transform="translate(-75.17 -37.55)"/><path class="cls-11" d="M358.87,255.85,354,253c-.39-.23-.34-.62.11-.88l1.6-.92a1.69,1.69,0,0,1,1.53-.06l4.88,2.82c.39.23.34.62-.11.88l-1.6.92A1.69,1.69,0,0,1,358.87,255.85Z" transform="translate(-75.17 -37.55)"/><path class="cls-11" d="M366.34,260.16l-4.88-2.82c-.39-.23-.34-.62.11-.88l1.6-.92a1.69,1.69,0,0,1,1.53-.06l4.88,2.82c.39.23.34.62-.11.88l-1.6.92A1.73,1.73,0,0,1,366.34,260.16Z" transform="translate(-75.17 -37.55)"/><path class="cls-11" d="M292.43,226.39l-4.88-2.82c-.39-.23-.34-.62.11-.88l4.83-2.79a1.69,1.69,0,0,1,1.53-.06l4.88,2.82c.39.23.34.62-.11.88L294,226.33A1.72,1.72,0,0,1,292.43,226.39Z" transform="translate(-75.17 -37.55)"/><path class="cls-11" d="M300,230.74l-4.88-2.82c-.39-.23-.34-.62.11-.88l4.83-2.79a1.69,1.69,0,0,1,1.53-.06l4.88,2.82c.39.23.34.62-.11.88l-4.83,2.79A1.76,1.76,0,0,1,300,230.74Z" transform="translate(-75.17 -37.55)"/><path class="cls-11" d="M307.49,235.08l-4.88-2.82c-.39-.23-.34-.62.11-.88l4.83-2.79a1.69,1.69,0,0,1,1.53-.06l4.88,2.82c.39.23.34.62-.11.88L309,235A1.69,1.69,0,0,1,307.49,235.08Z" transform="translate(-75.17 -37.55)"/><path class="cls-11" d="M315,239.43l-4.88-2.82c-.39-.23-.34-.62.11-.88l4.83-2.79a1.69,1.69,0,0,1,1.53-.06l4.88,2.82c.39.23.34.62-.11.88l-4.83,2.79A1.69,1.69,0,0,1,315,239.43Z" transform="translate(-75.17 -37.55)"/><path class="cls-11" d="M322.56,243.78,317.68,241c-.39-.23-.34-.62.11-.88l4.83-2.79a1.69,1.69,0,0,1,1.53-.06l4.88,2.82c.39.23.34.62-.11.88l-4.83,2.79A1.69,1.69,0,0,1,322.56,243.78Z" transform="translate(-75.17 -37.55)"/><path class="cls-11" d="M330.09,248.13l-4.88-2.82c-.39-.23-.34-.62.11-.88l4.83-2.79a1.69,1.69,0,0,1,1.53-.06l4.88,2.82c.39.23.34.62-.11.88l-4.83,2.79A1.76,1.76,0,0,1,330.09,248.13Z" transform="translate(-75.17 -37.55)"/><path class="cls-11" d="M337.62,252.47l-4.88-2.82c-.39-.23-.34-.62.11-.88l4.83-2.79a1.69,1.69,0,0,1,1.53-.06l4.88,2.82c.39.23.34.62-.11.88l-4.83,2.79A1.69,1.69,0,0,1,337.62,252.47Z" transform="translate(-75.17 -37.55)"/><path class="cls-11" d="M345.15,256.82,340.27,254c-.39-.23-.34-.62.11-.88l4.83-2.79a1.69,1.69,0,0,1,1.53-.06l4.88,2.82c.39.23.34.62-.11.88l-4.83,2.79A1.69,1.69,0,0,1,345.15,256.82Z" transform="translate(-75.17 -37.55)"/><path class="cls-11" d="M352.68,261.17l-4.88-2.82c-.39-.23-.34-.62.11-.88l4.83-2.79a1.69,1.69,0,0,1,1.53-.06l4.88,2.82c.39.23.34.62-.11.88l-4.83,2.79A1.69,1.69,0,0,1,352.68,261.17Z" transform="translate(-75.17 -37.55)"/><path class="cls-11" d="M249.38,226.93,235,218.64c-.39-.23-.34-.62.11-.88L240,215a1.69,1.69,0,0,1,1.53-.06l14.36,8.29c.39.23.34.62-.11.88l-4.83,2.79A1.76,1.76,0,0,1,249.38,226.93Z" transform="translate(-75.17 -37.55)"/><path class="cls-11" d="M341.89,280.34l-14.36-8.29c-.39-.23-.34-.62.11-.88l4.83-2.79a1.69,1.69,0,0,1,1.53-.06l14.36,8.29c.39.23.34.62-.11.88l-4.83,2.79A1.76,1.76,0,0,1,341.89,280.34Z" transform="translate(-75.17 -37.55)"/><path class="cls-11" d="M311.78,272.55l-4.88-2.82c-.39-.23-.34-.62.11-.88l5.76-3.32a1.69,1.69,0,0,1,1.53-.06l4.88,2.82c.39.23.34.62-.11.88l-5.76,3.32A1.69,1.69,0,0,1,311.78,272.55Z" transform="translate(-75.17 -37.55)"/><path class="cls-11" d="M257.09,241l-7.8-4.5c-.39-.23-.34-.62.11-.88l5.76-3.32a1.69,1.69,0,0,1,1.53-.06l7.8,4.5c.39.23.34.62-.11.88l-5.76,3.32A1.69,1.69,0,0,1,257.09,241Z" transform="translate(-75.17 -37.55)"/><path class="cls-11" d="M304.52,268.36l-7.8-4.5c-.39-.23-.34-.62.11-.88l5.76-3.32a1.69,1.69,0,0,1,1.53-.06l7.8,4.5c.39.23.34.62-.11.88l-5.76,3.32A1.69,1.69,0,0,1,304.52,268.36Z" transform="translate(-75.17 -37.55)"/><path class="cls-11" d="M268,247.25l-7.8-4.5c-.39-.23-.34-.62.11-.88l5.76-3.32a1.69,1.69,0,0,1,1.53-.06l7.8,4.5c.39.23.34.62-.11.88l-5.76,3.32A1.69,1.69,0,0,1,268,247.25Z" transform="translate(-75.17 -37.55)"/><path class="cls-11" d="M267.61,238.51l33.9,19.58a.46.46,0,0,1,0,.88l-5.87,3.39a1.69,1.69,0,0,1-1.52,0l-33.9-19.57Z" transform="translate(-75.17 -37.55)"/><path class="cls-11" d="M332.83,280.44l5.43,3.14c.32.19.28.51-.09.72l-2.35,1.36a1.38,1.38,0,0,1-1.25,0l-5.43-3.14c-.32-.19-.28-.51.09-.72l2.35-1.36A1.35,1.35,0,0,1,332.83,280.44Z" transform="translate(-75.17 -37.55)"/><path class="cls-11" d="M325.23,276.05l5.43,3.14c.32.19.28.51-.09.72l-2.35,1.36a1.38,1.38,0,0,1-1.25.05l-5.43-3.14c-.32-.19-.28-.51.09-.72L324,276.1A1.42,1.42,0,0,1,325.23,276.05Z" transform="translate(-75.17 -37.55)"/><path class="cls-11" d="M317.7,271.7l5.43,3.14c.32.19.28.51-.09.72l-2.35,1.36a1.38,1.38,0,0,1-1.25.05L314,273.83c-.32-.19-.28-.51.09-.72l2.35-1.36A1.42,1.42,0,0,1,317.7,271.7Z" transform="translate(-75.17 -37.55)"/><path class="cls-11" d="M329.39,273.65l5.43,3.14c.32.19.28.51-.09.72l-2.35,1.36a1.38,1.38,0,0,1-1.25.05l-5.43-3.14c-.32-.19-.28-.51.09-.72l2.35-1.36A1.42,1.42,0,0,1,329.39,273.65Z" transform="translate(-75.17 -37.55)"/></g><g class="cls-10"><path class="cls-11" d="M231.58,226.25l-4.88-2.82c-.39-.23-.34-.62.11-.88l5.76-3.32a1.69,1.69,0,0,1,1.53-.06L239,222c.39.23.34.62-.11.88l-5.76,3.32A1.69,1.69,0,0,1,231.58,226.25Z" transform="translate(-75.17 -37.55)"/><path class="cls-11" d="M239.11,230.6l-4.88-2.82c-.39-.23-.34-.62.11-.88l5.76-3.32a1.69,1.69,0,0,1,1.53-.06l4.88,2.82c.39.23.34.62-.11.88l-5.76,3.32A1.72,1.72,0,0,1,239.11,230.6Z" transform="translate(-75.17 -37.55)"/><path class="cls-11" d="M246.64,235l-4.88-2.82c-.39-.23-.34-.62.11-.88l5.76-3.32a1.69,1.69,0,0,1,1.53-.06l4.88,2.82c.39.23.34.62-.11.88l-5.76,3.32A1.76,1.76,0,0,1,246.64,235Z" transform="translate(-75.17 -37.55)"/><path class="cls-11" d="M257.06,231.36l-4.88-2.82c-.39-.23-.34-.62.11-.88l4.83-2.79a1.69,1.69,0,0,1,1.53-.06l4.88,2.82c.39.23.34.62-.11.88l-4.83,2.79A1.76,1.76,0,0,1,257.06,231.36Z" transform="translate(-75.17 -37.55)"/><path class="cls-11" d="M264.59,235.7l-4.88-2.82c-.39-.23-.34-.62.11-.88l4.83-2.79a1.69,1.69,0,0,1,1.53-.06l4.88,2.82c.39.23.34.62-.11.88l-4.83,2.79A1.69,1.69,0,0,1,264.59,235.7Z" transform="translate(-75.17 -37.55)"/><path class="cls-11" d="M272.12,240.05l-4.88-2.82c-.39-.23-.34-.62.11-.88l4.83-2.79a1.69,1.69,0,0,1,1.53-.06l4.88,2.82c.39.23.34.62-.11.88L273.65,240A1.69,1.69,0,0,1,272.12,240.05Z" transform="translate(-75.17 -37.55)"/><path class="cls-11" d="M279.65,244.4l-4.88-2.82c-.39-.23-.34-.62.11-.88l4.83-2.79a1.69,1.69,0,0,1,1.53-.06l4.88,2.82c.39.23.34.62-.11.88l-4.83,2.79A1.73,1.73,0,0,1,279.65,244.4Z" transform="translate(-75.17 -37.55)"/><path class="cls-11" d="M287.18,248.75l-4.88-2.82c-.39-.23-.34-.62.11-.88l4.83-2.79a1.69,1.69,0,0,1,1.53-.06l4.88,2.82c.39.23.34.62-.11.88l-4.83,2.79A1.76,1.76,0,0,1,287.18,248.75Z" transform="translate(-75.17 -37.55)"/><path class="cls-11" d="M294.71,253.09l-4.88-2.82c-.39-.23-.34-.62.11-.88l4.83-2.79a1.69,1.69,0,0,1,1.53-.06l4.88,2.82c.39.23.34.62-.11.88L296.24,253A1.69,1.69,0,0,1,294.71,253.09Z" transform="translate(-75.17 -37.55)"/><path class="cls-11" d="M302.24,257.44l-4.88-2.82c-.39-.23-.34-.62.11-.88L302.3,251a1.69,1.69,0,0,1,1.53-.06l4.88,2.82c.39.23.34.62-.11.88l-4.83,2.79A1.69,1.69,0,0,1,302.24,257.44Z" transform="translate(-75.17 -37.55)"/><path class="cls-11" d="M309.77,261.79,304.89,259c-.39-.23-.34-.62.11-.88l4.83-2.79a1.69,1.69,0,0,1,1.53-.06l4.88,2.82c.39.23.34.62-.11.88l-4.83,2.79A1.69,1.69,0,0,1,309.77,261.79Z" transform="translate(-75.17 -37.55)"/><path class="cls-11" d="M317.3,266.14l-4.88-2.82c-.39-.23-.34-.62.11-.88l4.83-2.79a1.69,1.69,0,0,1,1.53-.06l4.88,2.82c.39.23.34.62-.11.88l-4.83,2.79A1.76,1.76,0,0,1,317.3,266.14Z" transform="translate(-75.17 -37.55)"/><path class="cls-11" d="M324.83,270.48,320,267.66c-.39-.23-.34-.62.11-.88l4.83-2.79a1.69,1.69,0,0,1,1.53-.06l4.88,2.82c.39.23.34.62-.11.88l-4.83,2.79A1.69,1.69,0,0,1,324.83,270.48Z" transform="translate(-75.17 -37.55)"/><path class="cls-11" d="M268.15,229.3l-4.88-2.82c-.39-.23-.34-.62.11-.88l4.83-2.79a1.69,1.69,0,0,1,1.53-.06l4.88,2.82c.39.23.34.62-.11.88l-4.83,2.79A1.72,1.72,0,0,1,268.15,229.3Z" transform="translate(-75.17 -37.55)"/><path class="cls-11" d="M260.51,224.89l-4.88-2.82c-.39-.23-.34-.62.11-.88l4.83-2.79a1.69,1.69,0,0,1,1.53-.06l4.88,2.82c.39.23.34.62-.11.88L262,224.83A1.76,1.76,0,0,1,260.51,224.89Z" transform="translate(-75.17 -37.55)"/><path class="cls-11" d="M252.85,220.47l-10.5-6.06c-.39-.23-.34-.62.11-.88l4.83-2.79a1.69,1.69,0,0,1,1.53-.06l10.5,6.06c.39.23.34.62-.11.88l-4.83,2.79A1.76,1.76,0,0,1,252.85,220.47Z" transform="translate(-75.17 -37.55)"/><path class="cls-11" d="M258.2,215.09l-8.52-4.92c-.39-.23-.34-.62.11-.88l4.83-2.79a1.69,1.69,0,0,1,1.53-.06l8.52,4.92c.39.23.34.62-.11.88L259.73,215A1.69,1.69,0,0,1,258.2,215.09Z" transform="translate(-75.17 -37.55)"/><path class="cls-11" d="M275.68,233.65l-4.88-2.82c-.39-.23-.34-.62.11-.88l4.83-2.79a1.69,1.69,0,0,1,1.53-.06l4.88,2.82c.39.23.34.62-.11.88l-4.83,2.79A1.76,1.76,0,0,1,275.68,233.65Z" transform="translate(-75.17 -37.55)"/><path class="cls-11" d="M283.21,238l-4.88-2.82c-.39-.23-.34-.62.11-.88l4.83-2.79a1.69,1.69,0,0,1,1.53-.06l4.88,2.82c.39.23.34.62-.11.88l-4.83,2.79A1.69,1.69,0,0,1,283.21,238Z" transform="translate(-75.17 -37.55)"/><path class="cls-11" d="M290.74,242.34l-4.88-2.82c-.39-.23-.34-.62.11-.88l4.83-2.79a1.69,1.69,0,0,1,1.53-.06l4.88,2.82c.39.23.34.62-.11.88l-4.83,2.79A1.69,1.69,0,0,1,290.74,242.34Z" transform="translate(-75.17 -37.55)"/><path class="cls-11" d="M298.27,246.69l-4.88-2.82c-.39-.23-.34-.62.11-.88l4.83-2.79a1.69,1.69,0,0,1,1.53-.06l4.88,2.82c.39.23.34.62-.11.88l-4.83,2.79A1.72,1.72,0,0,1,298.27,246.69Z" transform="translate(-75.17 -37.55)"/><path class="cls-11" d="M305.8,251l-4.88-2.82c-.39-.23-.34-.62.11-.88l4.83-2.79a1.69,1.69,0,0,1,1.53-.06l4.88,2.82c.39.23.34.62-.11.88L307.33,251A1.76,1.76,0,0,1,305.8,251Z" transform="translate(-75.17 -37.55)"/><path class="cls-11" d="M313.33,255.38l-4.88-2.82c-.39-.23-.34-.62.11-.88l4.83-2.79a1.69,1.69,0,0,1,1.53-.06l4.88,2.82c.39.23.34.62-.11.88l-4.83,2.79A1.69,1.69,0,0,1,313.33,255.38Z" transform="translate(-75.17 -37.55)"/><path class="cls-11" d="M320.86,259.73,316,256.91c-.39-.23-.34-.62.11-.88l4.83-2.79a1.69,1.69,0,0,1,1.53-.06l4.88,2.82c.39.23.34.62-.11.88l-4.83,2.79A1.69,1.69,0,0,1,320.86,259.73Z" transform="translate(-75.17 -37.55)"/><path class="cls-11" d="M328.39,264.08l-4.88-2.82c-.39-.23-.34-.62.11-.88l4.83-2.79a1.69,1.69,0,0,1,1.53-.06l4.88,2.82c.39.23.34.62-.11.88L329.92,264A1.72,1.72,0,0,1,328.39,264.08Z" transform="translate(-75.17 -37.55)"/><path class="cls-11" d="M335.92,268.43,331,265.61c-.39-.23-.34-.62.11-.88l4.83-2.79a1.69,1.69,0,0,1,1.53-.06l4.88,2.82c.39.23.34.62-.11.88l-4.83,2.79A1.76,1.76,0,0,1,335.92,268.43Z" transform="translate(-75.17 -37.55)"/><path class="cls-11" d="M349.31,276.16,338.67,270c-.39-.23-.34-.62.11-.88l4.83-2.79a1.69,1.69,0,0,1,1.53-.06l10.64,6.14c.39.23.34.62-.11.88l-4.83,2.79A1.76,1.76,0,0,1,349.31,276.16Z" transform="translate(-75.17 -37.55)"/><path class="cls-11" d="M364,267.69l-9-5.18c-.39-.23-.34-.62.11-.88l4.83-2.79a1.69,1.69,0,0,1,1.53-.06l9,5.18c.39.23.34.62-.11.88l-4.83,2.79A1.69,1.69,0,0,1,364,267.69Z" transform="translate(-75.17 -37.55)"/><path class="cls-11" d="M288.87,232.79,284,230c-.39-.23-.34-.62.11-.88l4.83-2.79a1.69,1.69,0,0,1,1.53-.06l4.88,2.82c.39.23.34.62-.11.88l-4.83,2.79A1.69,1.69,0,0,1,288.87,232.79Z" transform="translate(-75.17 -37.55)"/><path class="cls-11" d="M281.15,228.34l-4.88-2.82c-.39-.23-.34-.62.11-.88l4.83-2.79a1.69,1.69,0,0,1,1.53-.06l4.88,2.82c.39.23.34.62-.11.88l-4.83,2.79A1.72,1.72,0,0,1,281.15,228.34Z" transform="translate(-75.17 -37.55)"/><path class="cls-11" d="M273.43,223.88l-4.88-2.82c-.39-.23-.34-.62.11-.88l4.83-2.79a1.69,1.69,0,0,1,1.53-.06l4.88,2.82c.39.23.34.62-.11.88L275,223.82A1.69,1.69,0,0,1,273.43,223.88Z" transform="translate(-75.17 -37.55)"/><path class="cls-11" d="M265.72,219.43l-4.88-2.82c-.39-.23-.34-.62.11-.88l4.83-2.79a1.69,1.69,0,0,1,1.53-.06l4.88,2.82c.39.23.34.62-.11.88l-4.83,2.79A1.76,1.76,0,0,1,265.72,219.43Z" transform="translate(-75.17 -37.55)"/><path class="cls-11" d="M296.4,237.14l-4.88-2.82c-.39-.23-.34-.62.11-.88l4.83-2.79a1.69,1.69,0,0,1,1.53-.06l4.88,2.82c.39.23.34.62-.11.88l-4.83,2.79A1.69,1.69,0,0,1,296.4,237.14Z" transform="translate(-75.17 -37.55)"/><path class="cls-11" d="M303.93,241.49l-4.88-2.82c-.39-.23-.34-.62.11-.88L304,235a1.69,1.69,0,0,1,1.53-.06l4.88,2.82c.39.23.34.62-.11.88l-4.83,2.79A1.69,1.69,0,0,1,303.93,241.49Z" transform="translate(-75.17 -37.55)"/><path class="cls-11" d="M311.46,245.84,306.58,243c-.39-.23-.34-.62.11-.88l4.83-2.79a1.69,1.69,0,0,1,1.53-.06l4.88,2.82c.39.23.34.62-.11.88L313,245.78A1.72,1.72,0,0,1,311.46,245.84Z" transform="translate(-75.17 -37.55)"/><path class="cls-11" d="M319,250.18l-4.88-2.82c-.39-.23-.34-.62.11-.88l4.83-2.79a1.69,1.69,0,0,1,1.53-.06l4.88,2.82c.39.23.34.62-.11.88l-4.83,2.79A1.69,1.69,0,0,1,319,250.18Z" transform="translate(-75.17 -37.55)"/><path class="cls-11" d="M326.52,254.53l-4.88-2.82c-.39-.23-.34-.62.11-.88l4.83-2.79a1.69,1.69,0,0,1,1.53-.06L333,250.8c.39.23.34.62-.11.88l-4.83,2.79A1.69,1.69,0,0,1,326.52,254.53Z" transform="translate(-75.17 -37.55)"/><path class="cls-11" d="M334.05,258.88l-4.88-2.82c-.39-.23-.34-.62.11-.88l4.83-2.79a1.69,1.69,0,0,1,1.53-.06l4.88,2.82c.39.23.34.62-.11.88l-4.83,2.79A1.69,1.69,0,0,1,334.05,258.88Z" transform="translate(-75.17 -37.55)"/><path class="cls-11" d="M341.58,263.23l-4.88-2.82c-.39-.23-.34-.62.11-.88l4.83-2.79a1.69,1.69,0,0,1,1.53-.06l4.88,2.82c.39.23.34.62-.11.88l-4.83,2.79A1.72,1.72,0,0,1,341.58,263.23Z" transform="translate(-75.17 -37.55)"/><path class="cls-11" d="M349.11,267.58l-4.88-2.82c-.39-.23-.34-.62.11-.88l4.83-2.79a1.69,1.69,0,0,1,1.53-.06l4.88,2.82c.39.23.34.62-.11.88l-4.83,2.79A1.76,1.76,0,0,1,349.11,267.58Z" transform="translate(-75.17 -37.55)"/><path class="cls-11" d="M356.64,271.92l-4.88-2.82c-.39-.23-.34-.62.11-.88l4.83-2.79a1.69,1.69,0,0,1,1.53-.06l4.88,2.82c.39.23.34.62-.11.88l-4.83,2.79A1.69,1.69,0,0,1,356.64,271.92Z" transform="translate(-75.17 -37.55)"/><path class="cls-11" d="M284.9,222,280,219.22c-.39-.23-.34-.62.11-.88l4.83-2.79a1.69,1.69,0,0,1,1.53-.06l4.88,2.82c.39.23.34.62-.11.88L286.43,222A1.69,1.69,0,0,1,284.9,222Z" transform="translate(-75.17 -37.55)"/><path class="cls-11" d="M277.41,217.72l-4.88-2.82c-.39-.23-.34-.62.11-.88l4.83-2.79a1.69,1.69,0,0,1,1.53-.06l4.88,2.82c.39.23.34.62-.11.88l-4.83,2.79A1.76,1.76,0,0,1,277.41,217.72Z" transform="translate(-75.17 -37.55)"/><path class="cls-11" d="M269.92,213.39,265,210.57c-.39-.23-.34-.62.11-.88L270,206.9a1.69,1.69,0,0,1,1.53-.06l4.88,2.82c.39.23.34.62-.11.88l-4.83,2.79A1.69,1.69,0,0,1,269.92,213.39Z" transform="translate(-75.17 -37.55)"/><path class="cls-11" d="M262.43,209.06l-4.88-2.82c-.39-.23-.34-.62.11-.88l4.83-2.79a1.69,1.69,0,0,1,1.53-.06l4.88,2.82c.39.23.34.62-.11.88L264,209A1.69,1.69,0,0,1,262.43,209.06Z" transform="translate(-75.17 -37.55)"/><path class="cls-11" d="M270.13,204.61l-4.88-2.82c-.39-.23-.34-.62.11-.88L267,200a1.69,1.69,0,0,1,1.53-.06l4.88,2.82c.39.23.34.62-.11.88l-1.6.92A1.69,1.69,0,0,1,270.13,204.61Z" transform="translate(-75.17 -37.55)"/><path class="cls-11" d="M279.91,210.26,275,207.44c-.39-.23-.34-.62.11-.88l1.6-.92a1.69,1.69,0,0,1,1.53-.06l4.88,2.82c.39.23.34.62-.11.88l-1.6.92A1.69,1.69,0,0,1,279.91,210.26Z" transform="translate(-75.17 -37.55)"/><path class="cls-11" d="M287.37,214.57l-4.88-2.82c-.39-.23-.34-.62.11-.88l1.6-.92a1.69,1.69,0,0,1,1.53-.06l4.88,2.82c.39.23.34.62-.11.88l-1.6.92A1.72,1.72,0,0,1,287.37,214.57Z" transform="translate(-75.17 -37.55)"/><path class="cls-11" d="M294.83,218.88,290,216.06c-.39-.23-.34-.62.11-.88l1.6-.92a1.69,1.69,0,0,1,1.53-.06l4.88,2.82c.39.23.34.62-.11.88l-1.6.92A1.76,1.76,0,0,1,294.83,218.88Z" transform="translate(-75.17 -37.55)"/><path class="cls-11" d="M302.29,223.18l-4.88-2.82c-.39-.23-.34-.62.11-.88l1.6-.92a1.69,1.69,0,0,1,1.53-.06l4.88,2.82c.39.23.34.62-.11.88l-1.6.92A1.69,1.69,0,0,1,302.29,223.18Z" transform="translate(-75.17 -37.55)"/><path class="cls-11" d="M344,247.23l-4.88-2.82c-.39-.23-.34-.62.11-.88l1.6-.92a1.69,1.69,0,0,1,1.53-.06l4.88,2.82c.39.23.34.62-.11.88l-1.6.92A1.69,1.69,0,0,1,344,247.23Z" transform="translate(-75.17 -37.55)"/><path class="cls-11" d="M351.41,251.54l-4.88-2.82c-.39-.23-.34-.62.11-.88l1.6-.92a1.69,1.69,0,0,1,1.53-.06l4.88,2.82c.39.23.34.62-.11.88l-1.6.92A1.69,1.69,0,0,1,351.41,251.54Z" transform="translate(-75.17 -37.55)"/><path class="cls-11" d="M358.87,255.85,354,253c-.39-.23-.34-.62.11-.88l1.6-.92a1.69,1.69,0,0,1,1.53-.06l4.88,2.82c.39.23.34.62-.11.88l-1.6.92A1.69,1.69,0,0,1,358.87,255.85Z" transform="translate(-75.17 -37.55)"/><path class="cls-11" d="M366.34,260.16l-4.88-2.82c-.39-.23-.34-.62.11-.88l1.6-.92a1.69,1.69,0,0,1,1.53-.06l4.88,2.82c.39.23.34.62-.11.88l-1.6.92A1.73,1.73,0,0,1,366.34,260.16Z" transform="translate(-75.17 -37.55)"/><path class="cls-11" d="M292.43,226.39l-4.88-2.82c-.39-.23-.34-.62.11-.88l4.83-2.79a1.69,1.69,0,0,1,1.53-.06l4.88,2.82c.39.23.34.62-.11.88L294,226.33A1.72,1.72,0,0,1,292.43,226.39Z" transform="translate(-75.17 -37.55)"/><path class="cls-11" d="M300,230.74l-4.88-2.82c-.39-.23-.34-.62.11-.88l4.83-2.79a1.69,1.69,0,0,1,1.53-.06l4.88,2.82c.39.23.34.62-.11.88l-4.83,2.79A1.76,1.76,0,0,1,300,230.74Z" transform="translate(-75.17 -37.55)"/><path class="cls-11" d="M307.49,235.08l-4.88-2.82c-.39-.23-.34-.62.11-.88l4.83-2.79a1.69,1.69,0,0,1,1.53-.06l4.88,2.82c.39.23.34.62-.11.88L309,235A1.69,1.69,0,0,1,307.49,235.08Z" transform="translate(-75.17 -37.55)"/><path class="cls-11" d="M315,239.43l-4.88-2.82c-.39-.23-.34-.62.11-.88l4.83-2.79a1.69,1.69,0,0,1,1.53-.06l4.88,2.82c.39.23.34.62-.11.88l-4.83,2.79A1.69,1.69,0,0,1,315,239.43Z" transform="translate(-75.17 -37.55)"/><path class="cls-11" d="M322.56,243.78,317.68,241c-.39-.23-.34-.62.11-.88l4.83-2.79a1.69,1.69,0,0,1,1.53-.06l4.88,2.82c.39.23.34.62-.11.88l-4.83,2.79A1.69,1.69,0,0,1,322.56,243.78Z" transform="translate(-75.17 -37.55)"/><path class="cls-11" d="M330.09,248.13l-4.88-2.82c-.39-.23-.34-.62.11-.88l4.83-2.79a1.69,1.69,0,0,1,1.53-.06l4.88,2.82c.39.23.34.62-.11.88l-4.83,2.79A1.76,1.76,0,0,1,330.09,248.13Z" transform="translate(-75.17 -37.55)"/><path class="cls-11" d="M337.62,252.47l-4.88-2.82c-.39-.23-.34-.62.11-.88l4.83-2.79a1.69,1.69,0,0,1,1.53-.06l4.88,2.82c.39.23.34.62-.11.88l-4.83,2.79A1.69,1.69,0,0,1,337.62,252.47Z" transform="translate(-75.17 -37.55)"/><path class="cls-11" d="M345.15,256.82,340.27,254c-.39-.23-.34-.62.11-.88l4.83-2.79a1.69,1.69,0,0,1,1.53-.06l4.88,2.82c.39.23.34.62-.11.88l-4.83,2.79A1.69,1.69,0,0,1,345.15,256.82Z" transform="translate(-75.17 -37.55)"/><path class="cls-11" d="M352.68,261.17l-4.88-2.82c-.39-.23-.34-.62.11-.88l4.83-2.79a1.69,1.69,0,0,1,1.53-.06l4.88,2.82c.39.23.34.62-.11.88l-4.83,2.79A1.69,1.69,0,0,1,352.68,261.17Z" transform="translate(-75.17 -37.55)"/><path class="cls-11" d="M249.38,226.93,235,218.64c-.39-.23-.34-.62.11-.88L240,215a1.69,1.69,0,0,1,1.53-.06l14.36,8.29c.39.23.34.62-.11.88l-4.83,2.79A1.76,1.76,0,0,1,249.38,226.93Z" transform="translate(-75.17 -37.55)"/><path class="cls-11" d="M341.89,280.34l-14.36-8.29c-.39-.23-.34-.62.11-.88l4.83-2.79a1.69,1.69,0,0,1,1.53-.06l14.36,8.29c.39.23.34.62-.11.88l-4.83,2.79A1.76,1.76,0,0,1,341.89,280.34Z" transform="translate(-75.17 -37.55)"/><path class="cls-11" d="M311.78,272.55l-4.88-2.82c-.39-.23-.34-.62.11-.88l5.76-3.32a1.69,1.69,0,0,1,1.53-.06l4.88,2.82c.39.23.34.62-.11.88l-5.76,3.32A1.69,1.69,0,0,1,311.78,272.55Z" transform="translate(-75.17 -37.55)"/><path class="cls-11" d="M257.09,241l-7.8-4.5c-.39-.23-.34-.62.11-.88l5.76-3.32a1.69,1.69,0,0,1,1.53-.06l7.8,4.5c.39.23.34.62-.11.88l-5.76,3.32A1.69,1.69,0,0,1,257.09,241Z" transform="translate(-75.17 -37.55)"/><path class="cls-11" d="M304.52,268.36l-7.8-4.5c-.39-.23-.34-.62.11-.88l5.76-3.32a1.69,1.69,0,0,1,1.53-.06l7.8,4.5c.39.23.34.62-.11.88l-5.76,3.32A1.69,1.69,0,0,1,304.52,268.36Z" transform="translate(-75.17 -37.55)"/><path class="cls-11" d="M268,247.25l-7.8-4.5c-.39-.23-.34-.62.11-.88l5.76-3.32a1.69,1.69,0,0,1,1.53-.06l7.8,4.5c.39.23.34.62-.11.88l-5.76,3.32A1.69,1.69,0,0,1,268,247.25Z" transform="translate(-75.17 -37.55)"/><path class="cls-11" d="M267.61,238.51l33.9,19.58a.46.46,0,0,1,0,.88l-5.87,3.39a1.69,1.69,0,0,1-1.52,0l-33.9-19.57Z" transform="translate(-75.17 -37.55)"/><path class="cls-11" d="M332.83,280.44l5.43,3.14c.32.19.28.51-.09.72l-2.35,1.36a1.38,1.38,0,0,1-1.25,0l-5.43-3.14c-.32-.19-.28-.51.09-.72l2.35-1.36A1.35,1.35,0,0,1,332.83,280.44Z" transform="translate(-75.17 -37.55)"/><path class="cls-11" d="M325.23,276.05l5.43,3.14c.32.19.28.51-.09.72l-2.35,1.36a1.38,1.38,0,0,1-1.25.05l-5.43-3.14c-.32-.19-.28-.51.09-.72L324,276.1A1.42,1.42,0,0,1,325.23,276.05Z" transform="translate(-75.17 -37.55)"/><path class="cls-11" d="M317.7,271.7l5.43,3.14c.32.19.28.51-.09.72l-2.35,1.36a1.38,1.38,0,0,1-1.25.05L314,273.83c-.32-.19-.28-.51.09-.72l2.35-1.36A1.42,1.42,0,0,1,317.7,271.7Z" transform="translate(-75.17 -37.55)"/><path class="cls-11" d="M329.39,273.65l5.43,3.14c.32.19.28.51-.09.72l-2.35,1.36a1.38,1.38,0,0,1-1.25.05l-5.43-3.14c-.32-.19-.28-.51.09-.72l2.35-1.36A1.42,1.42,0,0,1,329.39,273.65Z" transform="translate(-75.17 -37.55)"/></g><path class="cls-12" d="M409.09,264.86,265.22,181.8a6.39,6.39,0,0,1-2.64-7.11L295.11,69.06c.81-2.62,3.29-3.68,5.56-2.38l143.86,83.06a6.39,6.39,0,0,1,2.64,7.11L414.64,262.48C413.84,265.1,411.35,266.16,409.09,264.86Z" transform="translate(-75.17 -37.55)"/><path class="cls-13" d="M407.73,261.16,268.19,180.53a6.11,6.11,0,0,1-2.52-6.8l31.1-101c.77-2.51,3.15-3.53,5.32-2.28L441.63,151.1a6.11,6.11,0,0,1,2.52,6.8l-31.1,101C412.27,261.39,409.89,262.41,407.73,261.16Z" transform="translate(-75.17 -37.55)"/><path class="cls-14" d="M407.73,261.16,268.19,180.53a6.11,6.11,0,0,1-2.52-6.8l31.1-101c.77-2.51,3.15-3.53,5.32-2.28L441.63,151.1a6.11,6.11,0,0,1,2.52,6.8l-31.1,101C412.27,261.39,409.89,262.41,407.73,261.16Z" transform="translate(-75.17 -37.55)"/><path class="cls-14" d="M407.73,261.16,268.19,180.53a6.11,6.11,0,0,1-2.52-6.8l31.1-101c.77-2.51,3.15-3.53,5.32-2.28L441.63,151.1a6.11,6.11,0,0,1,2.52,6.8l-31.1,101C412.27,261.39,409.89,262.41,407.73,261.16Z" transform="translate(-75.17 -37.55)"/><path class="cls-15" d="M400.23,230.3l-94.46-54.54a4.18,4.18,0,0,1-1.73-4.67l21.36-69.36a2.42,2.42,0,0,1,3.65-1.56l94.46,54.54a4.18,4.18,0,0,1,1.73,4.67l-21.36,69.36A2.43,2.43,0,0,1,400.23,230.3Z" transform="translate(-75.17 -37.55)"/><path class="cls-16" d="M387.47,232,293,177.43a4.18,4.18,0,0,1-1.73-4.67l21.36-69.36a2.42,2.42,0,0,1,3.65-1.56l94.46,54.54a4.18,4.18,0,0,1,1.73,4.67l-21.36,69.36A2.42,2.42,0,0,1,387.47,232Z" transform="translate(-75.17 -37.55)"/><g class="cls-17"><path class="cls-11" d="M387.47,232,293,177.43a4.18,4.18,0,0,1-1.73-4.67l21.36-69.36a2.42,2.42,0,0,1,3.65-1.56l94.46,54.54a4.18,4.18,0,0,1,1.73,4.67l-21.36,69.36A2.42,2.42,0,0,1,387.47,232Z" transform="translate(-75.17 -37.55)"/></g><path class="cls-9" d="M410.75,156.38l-94.46-54.54a2.36,2.36,0,0,0-2.66.09,2.56,2.56,0,0,1,1.36.35l94.46,54.54a4.18,4.18,0,0,1,1.73,4.67l-21.36,69.36a2.88,2.88,0,0,1-1,1.47,2.49,2.49,0,0,0,2.28-1.91l21.36-69.36A4.18,4.18,0,0,0,410.75,156.38Z" transform="translate(-75.17 -37.55)"/><path class="cls-14" d="M268.33,288.61a7.1,7.1,0,0,1-3.5-.82h0L227,265.94a2.74,2.74,0,0,1-1.55-2.33,3.57,3.57,0,0,1,2.09-2.89L247,249.47a8.74,8.74,0,0,1,8-.31L292.8,271a2.77,2.77,0,0,1,1.56,2.33,3.57,3.57,0,0,1-2.09,2.89l-19.48,11.25A9.07,9.07,0,0,1,268.33,288.61Zm-16.85-39.16a8.11,8.11,0,0,0-3.93,1l-19.48,11.25c-1,.57-1.54,1.28-1.54,1.95a1.72,1.72,0,0,0,1,1.38l37.85,21.85a7.75,7.75,0,0,0,6.86-.31l19.48-11.25c1-.57,1.54-1.27,1.54-2a1.72,1.72,0,0,0-1-1.38l-37.84-21.85A6,6,0,0,0,251.48,249.45Z" transform="translate(-75.17 -37.55)"/><path class="cls-9" d="M339.3,138.24l-5.84-3.37a1.53,1.53,0,0,1-.65-1.68h0a.87.87,0,0,1,1.31-.55L340,136a1.53,1.53,0,0,1,.65,1.68h0A.87.87,0,0,1,339.3,138.24Z" transform="translate(-75.17 -37.55)"/><path class="cls-9" d="M353.21,146.27l-8.61-5a1.53,1.53,0,0,1-.65-1.68h0a.87.87,0,0,1,1.31-.55l8.61,5a1.53,1.53,0,0,1,.65,1.68h0A.86.86,0,0,1,353.21,146.27Z" transform="translate(-75.17 -37.55)"/><path class="cls-9" d="M327.52,164.24l-5.84-3.37a1.53,1.53,0,0,1-.65-1.68h0a.87.87,0,0,1,1.31-.55l5.84,3.37a1.53,1.53,0,0,1,.65,1.68h0A.87.87,0,0,1,327.52,164.24Z" transform="translate(-75.17 -37.55)"/><path class="cls-9" d="M339.92,171.39l-8.61-5a1.53,1.53,0,0,1-.65-1.68h0a.87.87,0,0,1,1.31-.55l8.61,5a1.53,1.53,0,0,1,.65,1.68h0A.86.86,0,0,1,339.92,171.39Z" transform="translate(-75.17 -37.55)"/><path class="cls-9" d="M321.8,133.6l-3.65-2.11a1.53,1.53,0,0,1-.65-1.68h0a.87.87,0,0,1,1.31-.55l3.65,2.11a1.53,1.53,0,0,1,.65,1.68h0A.86.86,0,0,1,321.8,133.6Z" transform="translate(-75.17 -37.55)"/><path class="cls-9" d="M332.78,145.41,321.63,139a1.53,1.53,0,0,1-.65-1.68h0a.87.87,0,0,1,1.31-.55l11.15,6.44a1.53,1.53,0,0,1,.65,1.68h0A.87.87,0,0,1,332.78,145.41Z" transform="translate(-75.17 -37.55)"/><path class="cls-9" d="M322.5,150.4l-3.65-2.11a1.53,1.53,0,0,1-.65-1.68h0a.87.87,0,0,1,1.31-.55l3.65,2.11a1.53,1.53,0,0,1,.65,1.68h0A.86.86,0,0,1,322.5,150.4Z" transform="translate(-75.17 -37.55)"/><path class="cls-9" d="M341.26,183.1l-9.74-5.63a1.53,1.53,0,0,1-.65-1.68h0a.87.87,0,0,1,1.31-.55l9.74,5.63a1.53,1.53,0,0,1,.65,1.68h0A.86.86,0,0,1,341.26,183.1Z" transform="translate(-75.17 -37.55)"/><path class="cls-9" d="M318.41,159l-2.34-1.35a1.53,1.53,0,0,1-.65-1.68h0a.87.87,0,0,1,1.31-.55l2.34,1.35a1.53,1.53,0,0,1,.65,1.68h0A.87.87,0,0,1,318.41,159Z" transform="translate(-75.17 -37.55)"/><path class="cls-9" d="M316.19,168.63,313.28,167a1.53,1.53,0,0,1-.65-1.68h0a.87.87,0,0,1,1.31-.55l2.91,1.68a1.53,1.53,0,0,1,.65,1.68h0A.86.86,0,0,1,316.19,168.63Z" transform="translate(-75.17 -37.55)"/><path class="cls-9" d="M327.51,175.16l-7.67-4.43a1.53,1.53,0,0,1-.65-1.68h0a.87.87,0,0,1,1.31-.55l7.67,4.43a1.53,1.53,0,0,1,.65,1.68h0A.86.86,0,0,1,327.51,175.16Z" transform="translate(-75.17 -37.55)"/><path class="cls-9" d="M317.41,174.8l-5.51-3.18a1.53,1.53,0,0,1-.65-1.68h0a.87.87,0,0,1,1.31-.55l5.51,3.18a1.53,1.53,0,0,1,.65,1.68h0A.86.86,0,0,1,317.41,174.8Z" transform="translate(-75.17 -37.55)"/><path class="cls-9" d="M349.62,188l-3.54-2a1.53,1.53,0,0,1-.65-1.68h0a.87.87,0,0,1,1.31-.55l3.54,2a1.53,1.53,0,0,1,.65,1.68h0A.86.86,0,0,1,349.62,188Z" transform="translate(-75.17 -37.55)"/><path class="cls-9" d="M336.07,158.24l-9.74-5.63a1.53,1.53,0,0,1-.65-1.68h0a.87.87,0,0,1,1.31-.55l9.74,5.63a1.53,1.53,0,0,1,.65,1.68h0A.86.86,0,0,1,336.07,158.24Z" transform="translate(-75.17 -37.55)"/><path class="cls-18" d="M337.22,153.44l-17-9.8a1.53,1.53,0,0,1-.65-1.68h0a.87.87,0,0,1,1.31-.55l17,9.8a1.53,1.53,0,0,1,.65,1.68h0A.86.86,0,0,1,337.22,153.44Z" transform="translate(-75.17 -37.55)"/><path class="cls-18" d="M327.2,158.59,317.46,153a1.53,1.53,0,0,1-.65-1.68h0a.87.87,0,0,1,1.31-.55l9.74,5.63a1.53,1.53,0,0,1,.65,1.68h0A.87.87,0,0,1,327.2,158.59Z" transform="translate(-75.17 -37.55)"/><path class="cls-18" d="M343.46,162.51l-3.54-2a1.53,1.53,0,0,1-.65-1.68h0a.87.87,0,0,1,1.31-.55l3.54,2a1.53,1.53,0,0,1,.65,1.68h0A.87.87,0,0,1,343.46,162.51Z" transform="translate(-75.17 -37.55)"/><path class="cls-18" d="M379.47,161.43l-21-12.1a1.53,1.53,0,0,1-.65-1.68h0a.87.87,0,0,1,1.31-.55l21,12.1a1.53,1.53,0,0,1,.65,1.68h0A.86.86,0,0,1,379.47,161.43Z" transform="translate(-75.17 -37.55)"/><path class="cls-19" d="M326.39,169.05l-11.71-6.76a1.53,1.53,0,0,1-.65-1.68h0a.87.87,0,0,1,1.31-.55l11.71,6.76a1.53,1.53,0,0,1,.65,1.68h0A.86.86,0,0,1,326.39,169.05Z" transform="translate(-75.17 -37.55)"/><path class="cls-19" d="M328.16,131.8l-8.61-5a1.53,1.53,0,0,1-.65-1.68h0a.87.87,0,0,1,1.31-.55l8.61,5a1.53,1.53,0,0,1,.65,1.68h0A.86.86,0,0,1,328.16,131.8Z" transform="translate(-75.17 -37.55)"/><path class="cls-18" d="M315.61,179.22l-10-5.76a1.53,1.53,0,0,1-.65-1.68h0a.87.87,0,0,1,1.31-.55l10,5.76a1.53,1.53,0,0,1,.65,1.68h0A.86.86,0,0,1,315.61,179.22Z" transform="translate(-75.17 -37.55)"/><path class="cls-9" d="M381.82,150.65l-4.27-2.46a1.1,1.1,0,0,1-.47-1.23h0a.63.63,0,0,1,1-.4l4.27,2.46a1.1,1.1,0,0,1,.47,1.23h0A.63.63,0,0,1,381.82,150.65Z" transform="translate(-75.17 -37.55)"/><path class="cls-9" d="M390,155.35l-4.27-2.46a1.1,1.1,0,0,1-.47-1.23h0a.63.63,0,0,1,1-.4l4.27,2.46a1.1,1.1,0,0,1,.47,1.23h0A.63.63,0,0,1,390,155.35Z" transform="translate(-75.17 -37.55)"/><path class="cls-9" d="M398.11,160.05l-4.27-2.46a1.1,1.1,0,0,1-.47-1.23h0a.63.63,0,0,1,1-.4l4.27,2.46a1.1,1.1,0,0,1,.47,1.23h0A.63.63,0,0,1,398.11,160.05Z" transform="translate(-75.17 -37.55)"/><path class="cls-19" d="M402.11,162.36l-.13-.08a1.1,1.1,0,0,1-.47-1.23h0a.63.63,0,0,1,1-.4l.13.08a1.1,1.1,0,0,1,.47,1.23h0A.63.63,0,0,1,402.11,162.36Z" transform="translate(-75.17 -37.55)"/><path class="cls-20" d="M181.8,212.32a15.63,15.63,0,0,1-7.81-2.09h0L145.4,193.72a4,4,0,0,1,0-6.86L174,170.35a15.69,15.69,0,0,1,15.63,0l28.59,16.51a4,4,0,0,1,0,6.86l-28.59,16.51A15.7,15.7,0,0,1,181.8,212.32Zm-6.89-3.7a13.82,13.82,0,0,0,13.77,0l28.59-16.51a2.1,2.1,0,0,0,0-3.64L188.68,172a13.82,13.82,0,0,0-13.77,0l-28.59,16.51a2.1,2.1,0,0,0,0,3.64Z" transform="translate(-75.17 -37.55)"/><ellipse class="cls-4" cx="106.48" cy="153.13" rx="19.64" ry="11.34"/><path class="cls-21" d="M210.77,109.86H154.83l5.2,60.57h0c0,3.36,2.22,6.73,6.67,9.29,8.89,5.13,23.31,5.13,32.2,0,4.45-2.57,6.67-5.93,6.67-9.3Z" transform="translate(-75.17 -37.55)"/><path class="cls-14" d="M210.77,109.86H154.83l.86,10a21.82,21.82,0,0,0,5.18,4.66c10.69,7.09,28.33,8.46,40.36,3.35l-1.86,44.3a8.69,8.69,0,0,1-2,5.28c-1.81,2.13-5.3,4.64-12,6.06a31.53,31.53,0,0,0,13.54-3.76c4.45-2.57,6.67-5.93,6.67-9.3l4.17-48.57h0Z" transform="translate(-75.17 -37.55)"/><ellipse class="cls-14" cx="107.63" cy="72.31" rx="27.97" ry="16.15"/><ellipse class="cls-14" cx="107.63" cy="66.62" rx="24.09" ry="13.91"/><path class="cls-22" d="M212.42,109.1h0v0s0-.06,0-.08l-.54-5.42,0,.06c-.24-4.1-3.07-8.17-8.49-11.3-11.36-6.56-29.77-6.56-41.13,0-5.56,3.21-8.39,7.4-8.51,11.61h0l-.51,4.83c0,.13,0,.25,0,.38v.08h0c-.31,4.6,2.58,9.26,8.66,12.77,11.58,6.69,30.36,6.69,41.94,0C209.89,118.43,212.77,113.73,212.42,109.1Z" transform="translate(-75.17 -37.55)"/><ellipse class="cls-23" cx="107.63" cy="66.62" rx="24.09" ry="13.91"/><ellipse class="cls-24" cx="106.48" cy="66.62" rx="24.09" ry="13.91"/><path class="cls-14" d="M168.62,96.41c9.41-5.43,24.66-5.43,34.07,0l.34.22a19.64,19.64,0,0,0-3.19-2.29c-9.41-5.43-24.66-5.43-34.07,0s-9.39,14-.34,19.46C159.38,108.4,160.44,101.13,168.62,96.41Z" transform="translate(-75.17 -37.55)"/><path class="cls-25" d="M165.76,96.75c9.41-5.43,24.66-5.43,34.07,0,4.17,2.41,6.49,5.48,7,8.63.59-3.95-1.73-8-7-11-9.41-5.43-24.66-5.43-34.07,0-5.24,3-7.55,7.09-7,11C159.27,102.23,161.59,99.16,165.76,96.75Z" transform="translate(-75.17 -37.55)"/><path class="cls-26" d="M203.54,92.44c-11.34-6.68-29.82-6.84-41.28-.36s-11.55,17.15-.21,23.83,29.82,6.84,41.28.36S214.88,99.12,203.54,92.44ZM199.83,114a31.4,31.4,0,0,1-11,3.61l-.44-1.44a1.38,1.38,0,0,0-1.32-1h-8.65a1.38,1.38,0,0,0-1.32,1l-.44,1.44A31.41,31.41,0,0,1,165.75,114c-9.41-5.43-9.41-14.24,0-19.67s24.66-5.43,34.07,0S209.24,108.57,199.83,114Z" transform="translate(-75.17 -37.55)"/><path class="cls-9" d="M199.83,93.31c-9.41-5.43-24.66-5.43-34.07,0-4.93,2.85-7.27,6.62-7,10.35.22-3.39,2.56-6.74,7-9.32,9.41-5.43,24.66-5.43,34.07,0,4.48,2.58,6.82,5.93,7,9.32C207.1,99.93,204.76,96.15,199.83,93.31Z" transform="translate(-75.17 -37.55)"/><path class="cls-9" d="M203.33,115.24c-11.46,6.48-29.94,6.32-41.28-.36-5.4-3.18-8.2-7.26-8.42-11.37-.22,4.45,2.58,8.95,8.42,12.4,11.34,6.68,29.82,6.84,41.28.36,6-3.4,8.88-7.94,8.63-12.46C211.75,108,208.88,112.1,203.33,115.24Z" transform="translate(-75.17 -37.55)"/><path class="cls-27" d="M185.38,118.37h-5.17a.65.65,0,0,1-.65-.65v-.09a.65.65,0,0,1,.65-.65h5.17a.65.65,0,0,1,.65.65v.09A.66.66,0,0,1,185.38,118.37Z" transform="translate(-75.17 -37.55)"/><path class="cls-28" d="M185.38,117h-5.17a.65.65,0,0,0-.65.65v.09a.47.47,0,0,0,0,.17.65.65,0,0,1,.62-.48h5.17a.65.65,0,0,1,.62.48.53.53,0,0,0,0-.17v-.09A.68.68,0,0,0,185.38,117Z" transform="translate(-75.17 -37.55)"/><path class="cls-18" d="M183.59,164.21a4.47,4.47,0,1,1-8.64-2.3c.63-2.39,2.88-3.06,5.27-2.43S184.22,161.83,183.59,164.21Z" transform="translate(-75.17 -37.55)"/><path class="cls-18" d="M187.11,159.5a2,2,0,1,1-2.76-2.83c.9-.88,2.61-1.31,3.37-.53S188,158.62,187.11,159.5Z" transform="translate(-75.17 -37.55)"/><path class="cls-18" d="M182.43,155.76a2,2,0,1,1-3.9-.7c.22-1.24,1.36-2.59,2.44-2.39S182.65,154.52,182.43,155.76Z" transform="translate(-75.17 -37.55)"/><path class="cls-18" d="M176.67,155.19a2,2,0,1,1-3.66,1.5c-.48-1.16-.24-2.91.77-3.33S176.19,154,176.67,155.19Z" transform="translate(-75.17 -37.55)"/><path class="cls-29" d="M184.63,117.67s15.64-5.24,9.31-23.21S175.28,71,180.24,56.64c0,0-7.78,11.64-.51,27.38s8.87,13.94,8.78,21.47a13.57,13.57,0,0,1-7.33,12.18Z" transform="translate(-75.17 -37.55)"/><path class="cls-29" d="M186,59.13s-1.63-10.75,8.46-21.58c0,0-8.92,19.92-6,29.75C188.49,67.3,186.13,61.05,186,59.13Z" transform="translate(-75.17 -37.55)"/></svg>